<?xml version="1.0" encoding="UTF-8"?>
<svg width="500px" height="500px" viewBox="0 0 500 500" version="1.1" xmlns="http://www.w3.org/2000/svg" xmlns:xlink="http://www.w3.org/1999/xlink">
    
    <title>Profit Coach Icon- Colour - White background</title>
    <desc>Created with Sketch.</desc>
    <g id="Profit-Coach-Icon--Colour---White-background" stroke="none" stroke-width="1" fill="none" fill-rule="evenodd">
        <g id="Profit-Coach-Icon" transform="translate(118.000000, 138.000000)">
            <g transform="translate(0.000000, -0.000000)" id="Path">
                <path d="M94.4224114,219.016732 L94.4224114,175.696044 C82.05189,178.357207 69.2933946,179.903715 56.1761772,180.252429 L56.1761772,219.016732 L94.4224114,219.016732 L94.4224114,219.016732 Z" fill="#2291EB"></path>
                <path d="M114.717918,170.235925 L114.717918,219.016732 L152.965692,219.016732 L152.965692,153.479142 C140.758366,160.300249 127.995252,165.927412 114.717918,170.235925 L114.717918,170.235925 Z" fill="#2291EB"></path>
                <path d="M173.261199,140.701402 L173.261199,219.016732 L211.508203,219.016732 L211.508203,107.505758 C199.621109,119.994827 186.845679,131.125217 173.261199,140.701402 L173.261199,140.701402 Z" fill="#2291EB"></path>
                <path d="M237.046748,46.1465864 C186.677095,126.823632 104.953135,180.785124 1.42108547e-13,155.806986 C103.866192,152.011153 164.124564,104.107136 209.947069,26.8949145 L199.066091,19.163916 L247.782236,-1.42108547e-14 L247.782236,53.7775123 L237.046748,46.1465864 L237.046748,46.1465864 Z" fill="#0A5291"></path>
            </g>
        </g>
    </g>
</svg>