<?xml version="1.0" encoding="UTF-8"?>
<svg width="1766px" height="500px" viewBox="0 0 1766 500" version="1.1" xmlns="http://www.w3.org/2000/svg" xmlns:xlink="http://www.w3.org/1999/xlink">
    <title>Profit Coach Logo- Colour - Transparent background</title>
    <desc>Created with Sketch.</desc>
    <g id="Profit-Coach-Logo--Colour---White-background" stroke="none" stroke-width="1" fill="none" fill-rule="evenodd">
        <g id="PROFIT_COACH_LOGO_ORIGINAL_CMYK" transform="translate(137.853949, 139.344262)">
            <g id="Profit-Coach-Icon" transform="translate(0.015396, 0.172433)">
                <g transform="translate(0.000000, -0.000000)" id="Path">
                    <path d="M94.4224114,219.016732 L94.4224114,175.696044 C82.05189,178.357207 69.2933946,179.903715 56.1761772,180.252429 L56.1761772,219.016732 L94.4224114,219.016732 L94.4224114,219.016732 Z" fill="#2291EB"></path>
                    <path d="M114.717918,170.235925 L114.717918,219.016732 L152.965692,219.016732 L152.965692,153.479142 C140.758366,160.300249 127.995252,165.927412 114.717918,170.235925 L114.717918,170.235925 Z" fill="#2291EB"></path>
                    <path d="M173.261199,140.701402 L173.261199,219.016732 L211.508203,219.016732 L211.508203,107.505758 C199.621109,119.994827 186.845679,131.125217 173.261199,140.701402 L173.261199,140.701402 Z" fill="#2291EB"></path>
                    <path d="M237.046748,46.1465864 C186.677095,126.823632 104.953135,180.785124 1.42108547e-13,155.806986 C103.866192,152.011153 164.124564,104.107136 209.947069,26.8949145 L199.066091,19.163916 L247.782236,-1.42108547e-14 L247.782236,53.7775123 L237.046748,46.1465864 L237.046748,46.1465864 Z" fill="#0A5291"></path>
                </g>
            </g>
            <path d="M389.419702,190.623037 L389.419702,220.092898 L358.04923,220.092898 L358.04923,109.191598 L408.745273,109.191598 C418.781023,109.191598 427.497352,110.858962 434.887334,114.182145 C442.275776,117.503018 447.985306,122.264167 451.99976,128.44096 C456.011134,134.620832 458.019516,141.881489 458.019516,150.222161 C458.019516,158.251068 456.142768,165.249227 452.394662,171.216637 C448.644246,177.180968 443.28497,181.858211 436.314524,185.239127 L460.23651,220.092898 L426.649813,220.092898 L406.529819,190.623037 L389.419702,190.623037 Z M263.36586,151.161305 L263.36586,108.184713 L288.119989,108.184713 C294.718626,108.184713 301.980823,109.350174 307.120709,113.824962 C311.868003,117.960273 313.666231,123.605141 313.666231,129.771157 C313.666231,135.91254 311.882629,141.544321 307.109932,145.626516 C301.962348,150.026635 294.682446,151.161305 288.119989,151.161305 L263.36586,151.161305 L263.36586,151.161305 Z M231.822955,81.451454 L231.822955,220.131388 L263.36586,220.131388 L263.36586,177.896873 L290.49633,177.896873 C301.204875,177.896873 306.183875,176.341128 316.011781,171.917916 C324.230826,168.222155 331.17356,162.842095 336.134855,155.273522 C341.163122,147.599488 343.175352,138.887007 343.175352,129.771157 C343.175352,120.618357 341.145416,111.884322 336.127157,104.160252 C331.182028,96.5493404 324.257769,91.1384883 316.011781,87.4273318 C306.183875,83.0041199 301.204875,81.451454 290.49633,81.451454 L231.822955,81.451454 L231.822955,81.451454 Z M426.33343,150.222161 C426.33343,145.049174 424.690698,141.032411 421.420632,138.18265 C418.152104,135.334427 413.280105,133.905698 406.844663,133.905698 L389.419702,133.905698 L389.419702,166.383897 L406.844663,166.383897 C413.288573,166.383897 418.151335,164.977491 421.420632,162.185464 C424.690698,159.391897 426.33343,155.400537 426.33343,150.222161 L426.33343,150.222161 Z M531.211126,222.311432 C519.487997,222.311432 508.949576,219.822702 499.607407,214.866026 C490.26216,209.904731 482.912207,203.029739 477.585262,194.268761 C472.252928,185.505475 469.583297,175.625993 469.583297,164.638784 C469.583297,153.658503 472.252928,143.776712 477.585262,135.015735 C482.912207,126.256297 490.26216,119.378995 499.607407,114.41924 C508.948806,109.462564 519.487997,106.973833 531.211126,106.973833 C542.936563,106.973833 553.475755,109.462564 562.817153,114.41924 C572.160861,119.378225 579.510814,126.256297 584.838529,135.015735 C590.170093,143.777481 592.841263,153.659273 592.841263,164.638784 C592.841263,175.625993 590.170093,185.505475 584.838529,194.268761 C579.510814,203.029739 572.160861,209.904731 562.817153,214.866026 C553.475755,219.822702 542.936563,222.311432 531.211126,222.311432 L531.211126,222.311432 Z M531.211126,196.327949 C536.810576,196.327949 541.8858,195.003141 546.421401,192.367381 C550.959312,189.73239 554.557309,185.99968 557.196149,181.196192 C559.831139,176.398092 561.155947,170.871772 561.155947,164.638014 C561.155947,158.408875 559.831139,152.885634 557.196149,148.087534 C554.557309,143.283276 550.96547,139.557494 546.421401,136.914806 C541.879642,134.275197 536.810576,132.955777 531.211126,132.955777 C525.613984,132.955777 520.545689,134.275197 516.003159,136.914806 C511.45986,139.557494 507.865712,143.282507 505.229182,148.087534 C502.594191,152.885634 501.269383,158.408875 501.269383,164.638014 C501.269383,170.871772 502.593422,176.397322 505.229182,181.196192 C507.865712,185.99891 511.466018,189.73239 516.003159,192.367381 C520.5403,195.003141 525.613984,196.327949 531.211126,196.327949 L531.211126,196.327949 Z M640.687545,133.432277 L640.687545,157.830763 L689.640785,157.830763 L689.640785,182.068363 L640.687545,182.068363 L640.687545,220.092898 L609.316304,220.092898 L609.316304,109.191598 L696.294848,109.191598 L696.294848,133.432277 L640.687545,133.432277 L640.687545,133.432277 Z M713.998473,109.191598 L745.367405,109.191598 L745.367405,220.092898 L713.998473,220.092898 L713.998473,109.191598 L713.998473,109.191598 Z M794.286774,134.063505 L760.222038,134.063505 L760.222038,109.190828 L859.555708,109.190828 L859.555708,134.063505 L825.651858,134.063505 L825.651858,220.092898 L794.286774,220.092898 L794.286774,134.063505 L794.286774,134.063505 Z" id="Shape" fill="#0A5291" fill-rule="nonzero"></path>
            <path d="M1007.65479,200.138408 L993.560709,186.550849 C983.484161,197.050781 971.11056,202.433921 956.458382,202.433921 C947.161631,202.433921 938.215904,200.463259 930.050745,195.896097 C922.281257,191.549864 916.143723,185.476993 911.740525,177.672094 C907.161046,169.561589 905.171909,160.637417 905.171909,151.32527 C905.171909,142.011584 907.161046,133.086641 911.740525,124.973827 C916.143723,117.172008 922.281257,111.098367 930.050745,106.750594 C938.215135,102.183432 947.161631,100.212 956.458382,100.212 C971.065143,100.212 983.44952,105.498146 993.560709,115.912632 L1007.65017,102.502894 C1001.5034,95.6548447 994.139591,90.465692 985.669594,86.8430614 C976.012581,82.7115998 965.725881,80.9726448 955.270596,80.9726448 C942.218811,80.9726448 929.696641,83.746967 918.200601,90.0700201 C907.305767,96.0689916 898.605603,104.396577 892.243291,115.169785 C885.700078,126.247059 882.791042,138.439759 882.791042,151.32527 C882.791042,164.189996 885.668516,176.390394 892.147837,187.486914 C898.450875,198.269359 907.126406,206.589246 918.001995,212.575131 C929.498805,218.901264 942.020975,221.674046 955.07584,221.674046 C965.564995,221.674046 975.875559,219.921235 985.577219,215.80286 C994.079547,212.193316 1001.48954,207.006472 1007.65479,200.138408 L1007.65479,200.138408 Z M1077.02516,221.674046 C1065.72465,221.674046 1055.53186,219.220726 1046.44834,214.311007 C1037.36482,209.398209 1030.23657,202.58403 1025.05897,193.87155 C1019.88598,185.160609 1017.29795,175.41661 1017.29795,164.638784 C1017.29795,153.868655 1019.88598,144.126196 1025.05897,135.410637 C1030.23734,126.698926 1037.36482,119.884747 1046.44834,114.974258 C1055.53186,110.063769 1065.72465,107.60737 1077.02516,107.60737 C1088.32645,107.60737 1098.51846,110.063769 1107.60198,114.974258 C1116.6855,119.884747 1123.81606,126.672753 1128.99136,135.332888 C1134.16358,143.991483 1136.75315,153.760885 1136.75315,164.638014 C1136.75315,175.520532 1134.16358,185.290703 1128.99136,193.950838 C1123.81606,202.610973 1116.6855,209.39667 1107.60198,214.309468 C1098.51846,219.220726 1088.32645,221.674046 1077.02516,221.674046 L1077.02516,221.674046 Z M1077.02516,203.617088 C1084.41822,203.617088 1091.07383,201.949723 1096.98581,198.626541 C1102.90242,195.30028 1107.55041,190.652289 1110.92824,184.6818 C1114.30916,178.715159 1116.00039,172.035694 1116.00039,164.639554 C1116.00039,157.250342 1114.30916,150.568567 1110.92824,144.601157 C1107.54964,138.630667 1102.90165,133.985756 1096.98581,130.659494 C1091.07383,127.334003 1084.41822,125.672026 1077.02516,125.672026 C1069.6321,125.672026 1062.9765,127.334003 1057.06297,130.659494 C1051.14868,133.985756 1046.49915,138.630667 1043.12131,144.601157 C1039.7404,150.568567 1038.05071,157.251112 1038.05071,164.639554 C1038.05071,172.035694 1039.7404,178.715159 1043.12131,184.6818 C1046.49992,190.652289 1051.14945,195.30028 1057.06297,198.626541 C1062.9765,201.949723 1069.6321,203.617088 1077.02516,203.617088 L1077.02516,203.617088 Z M1228.95857,194.424259 L1173.50984,194.424259 L1162.57806,220.092898 L1141.34649,220.092898 L1191.25349,109.191598 L1211.53207,109.191598 L1261.59457,220.092898 L1240.0497,220.092898 L1228.95857,194.424259 L1228.95857,194.424259 Z M1222.1467,178.267911 L1201.23536,129.788862 L1180.47875,178.267911 L1222.1467,178.267911 L1222.1467,178.267911 Z M1295.10275,214.311007 C1286.07158,209.398209 1278.9949,202.612512 1273.87195,193.952378 C1268.75131,185.292243 1266.18868,175.522071 1266.18868,164.639554 C1266.18868,153.762424 1268.77671,143.993023 1273.95278,135.334427 C1279.12807,126.674293 1286.23246,119.886287 1295.25902,114.975798 C1304.28942,110.065309 1314.40523,107.60891 1325.60259,107.60891 C1334.68303,107.60891 1342.97752,109.193137 1350.4745,112.360822 C1357.97302,115.531586 1364.30993,120.124921 1369.48754,126.143908 L1356.17633,138.660689 C1348.1505,130.001324 1338.2741,125.672026 1326.5502,125.672026 C1318.95007,125.672026 1312.13281,127.334003 1306.11382,130.659494 C1300.09176,133.985756 1295.3945,138.608343 1292.01359,144.524178 C1288.63575,150.440012 1286.94221,157.14565 1286.94221,164.640323 C1286.94221,172.143464 1288.63575,178.851412 1292.01359,184.764167 C1295.39527,190.680001 1300.09176,195.301049 1306.11382,198.628081 C1312.13204,201.951263 1318.95007,203.618628 1326.5502,203.618628 C1338.2741,203.618628 1348.15127,199.233135 1356.17633,190.469079 L1369.48754,203.141358 C1364.30916,209.163423 1357.94685,213.756759 1350.39598,216.924444 C1342.84126,220.092898 1334.52368,221.674046 1325.44248,221.674046 C1314.2428,221.674046 1304.13392,219.220726 1295.10275,214.311007 Z M1487.83347,109.191598 L1487.83347,220.092898 L1467.23544,220.092898 L1467.23544,172.564539 L1409.88379,172.564539 L1409.88379,220.092898 L1389.28961,220.092898 L1389.28961,109.191598 L1409.88379,109.191598 L1409.88379,154.977922 L1467.23544,154.977922 L1467.23544,109.191598 L1487.83347,109.191598 L1487.83347,109.191598 Z" id="Shape" fill="#2291EB"></path>
        </g>
    </g>
</svg>